Patient4_TMGait_0pt8_01_right_51_EMG.mot
version=1
nRows=33
nColumns=33
inDegrees=no
endheader
time	1LAddLong	2LGlutMax	3LGlutMed	4LIliopsoas	5LSemiMemb	6LBicFemLong	7LRecFem	8LVastMed	9LVastLat	10LGasMed	11LTibAnt	12lTibPost	13LPeroneusLong	14LSol	15LExtDigLong	16LFlexDigLong	17RAddLong	18RGlutMax	19RGlutMed	20RIliopsoas	21RSemiMemb	22RBicFemLong	23RRecFem	24RVastMed	25RVastLat	26RGasMed	27RTibAnt	28RTibPost	29RPeroneusLong	30RSol	31RExtDigLong	32RFlexDigLong
58.625	0.010986	-0.038605	0.14099	-0.020599	0.019379	0.054626	0.060425	0.004578	0.037079	0.028229	-0.090027	0.006256	0.15411	0.039673	0.047913	0.006409	-0.002747	-0.20706	0.31403	0.11398	-0.093689	-0.052185	0.031281	0.020142	0.075378	-0.018158	0.28336	-0.006866	0.76782	-0.16281	0.001526	0.000305
58.626	0.011444	-0.033264	0.12466	-0.021515	0.036316	0.065918	0.055542	0.009003	0.032349	0.024567	-0.049133	0.005035	0.22934	0.10147	0.00946	-0.001526	-0.000458	-0.16357	0.1474	0.002136	-0.17563	-0.097809	0.019226	-0.02243	0.067444	-0.018921	0.14587	-0.010529	0.22858	-0.12268	0.002289	0.001526
58.627	0.00946	0.010834	0.080109	0.011292	0.034027	0.097046	0.06485	0.004883	0.02243	-0.005951	0.02533	0.007935	0.25436	0.10162	0.059204	-0.010529	0.021362	-0.14099	0.026093	-0.02655	-0.29968	-0.012512	-0.00946	-0.003815	0.071869	-0.037079	0.045624	-0.002747	-0.41031	-0.091858	0.001373	0.001678
58.628	0.005493	-0.036774	0.004425	-0.000305	0.015106	0.073395	0.056458	-0.005493	0.020294	0.015717	0.15015	0.006561	-0.13626	0.12207	0.12634	-0.006561	0.014648	-0.16464	0.11063	-0.046692	-0.22583	0.23102	-0.011902	-0.06897	0.054779	-0.030823	0.059662	-0.00824	-0.14984	0.059052	0.00061	0.003204
58.629	0.005646	-0.036469	0.005646	-0.006409	-0.012512	0.039673	0.068512	0.000763	0.015411	0.038452	0.12436	0.007019	-0.31387	0.10086	-0.020447	-0.014343	-0.006561	-0.14496	0.27756	-0.061951	-0.19424	0.19852	-0.032806	-0.036011	0.098724	-0.031891	0.27344	-0.006866	-0.020447	0.10361	-0.001831	-0.00061
58.63	0.00412	-0.029449	0.052948	0.012512	-0.034485	0.002594	0.062714	-0.000916	0.007172	0.041504	0.13657	-0.001831	-0.054626	0.047913	-0.15289	-0.00946	-0.016327	-0.1767	-0.011749	-0.040436	0.27298	0.069275	0.004578	-0.071259	0.091095	-0.025635	0.18021	-0.008087	0.067444	-0.028992	0.001984	-0.001373
58.631	0.00885	-0.023499	-0.011749	0.001831	-0.016479	-0.032806	0.064545	0.002594	0.007019	-0.046997	0.24368	0.007782	0.44311	0.010071	-0.057983	0.004272	0.008698	-0.103	-0.089874	-0.047607	0.27405	0.033569	0.026245	-0.098572	0.07019	-0.027466	0.056	-0.003052	-0.012665	-0.037079	0.001678	0.001526
58.632	0.010223	0.005341	-0.066376	0.00885	0.0177	-0.050812	0.067444	0	0.003662	-0.091248	0.19012	0.016785	-0.20905	0.01709	0.009003	0.004272	-0.00946	-0.050354	0.014496	-0.0383	0.16678	0.017395	0.019379	-0.099945	0.078125	-0.021973	-0.004578	-0.002594	-0.06424	-0.059662	0.002136	0.00946
58.633	0.006409	0.015564	-0.092926	0.002899	0.04425	-0.041046	0.076599	-0.002136	0.009918	-0.073395	-0.063782	0.009918	-0.49759	0.029755	-0.069427	0.005341	-0.00824	-0.004578	-0.017548	-0.040131	-0.00946	-0.041199	-0.02655	-0.060425	0.082092	-0.016479	0.023956	-0.005646	-0.014496	-0.042114	-0.00061	0.009613
58.634	0.006866	-0.025482	-0.018921	0.004578	0.056	-0.006256	0.11978	-0.004425	-0.003967	-0.12695	-0.27268	0.008087	-0.11475	-0.037231	-0.018768	0.00473	0.042877	-0.039673	0.071259	-0.036621	-0.11688	-0.070038	0.001678	-0.089417	0.080872	-0.022278	0.19989	-0.004272	-0.13794	-0.059967	0.002441	0.004272
58.635	0.003357	-0.012817	0.29404	-0.012512	0.055847	0.030212	0.15015	0.001984	-0.013123	-0.20203	-0.28214	0.014038	0.13168	-0.19058	-0.089722	-0.001221	0.064392	-0.10315	0.20828	-0.055084	-0.11581	-0.12161	0.013275	-0.093079	0.082397	-0.022888	0.1796	-0.005798	-0.23895	-0.070953	0	-0.000153
58.636	0.001984	-0.00473	0.23773	-0.008698	0.038605	0.037231	0.20462	0.025787	-0.004578	-0.11643	-0.15839	0.017242	-0.076447	-0.20462	-0.10651	-0.011902	0.050659	-0.15533	0.005493	-0.056305	-0.12299	-0.13275	0.032654	-0.06134	0.096588	-0.020142	0.16419	-0.002899	-0.055847	-0.066833	0.00061	-0.008087
58.637	0.002289	-0.026093	0.14358	-0.00412	0.022736	0.054169	0.19562	-0.006409	0.015869	-0.043488	-0.033264	0.015564	-0.06134	-0.12054	0.010681	-0.002594	0.015869	-0.1532	-0.21072	-0.066376	-0.090027	-0.12695	-0.021515	-0.042267	0.10574	-0.019226	0.037231	-0.002136	0.14358	0.012207	0.001526	-0.000305
58.638	-0.000916	0.000916	0.13001	0.00885	0.019379	0.070801	0.21576	0.010834	-0.010834	-0.089111	0.071106	0.012512	-0.12207	-0.023651	0.14847	-0.008698	-0.033417	-0.15564	-0.5397	-0.059357	-0.007629	-0.13534	0.012207	-0.031891	0.10193	-0.021362	0.080109	-0.000153	0.18433	0.041504	-0.000916	-0.00351
58.639	0.00412	0.018616	0.10132	0.014343	0.022736	0.062866	0.14862	0.011902	-0.016174	-0.11475	0.1329	0.013733	-0.20935	0.002594	0.040436	-0.01358	-0.053558	-0.10559	-0.37888	0.001068	0.070343	-0.16769	-0.003357	-0.008698	0.11231	-0.020752	0.069733	-0.014038	0.2626	-0.059662	0.002441	-0.002441
58.64	0.011749	-0.053558	0.092163	0.007629	0.010986	0.065308	0.016327	0.016327	-0.034637	-0.11963	0.092316	0.005646	0.080566	0.10178	0.000153	-0.010529	-0.054779	-0.093842	0.41412	-0.027924	0.31097	-0.17197	0.011597	-0.006104	0.10208	-0.024872	0.12466	-0.001373	0.25284	-0.058746	0.001984	-0.008545
58.641	0.016632	-0.066681	0.033875	-0.005798	-0.00412	0.085297	-0.10498	0.00885	0.009766	-0.11246	0.039673	0.00824	0.2533	0.095215	0.51987	-0.008545	-0.02243	-0.11154	0.41641	-0.061493	0.15457	-0.089417	0.037231	-0.059052	0.10483	-0.023651	0.11078	-0.005188	0.07843	0.03418	0.001984	-0.00351
58.642	0.011292	-0.056763	0.036163	-0.00412	-0.036316	0.1236	-0.083923	0.006256	0.062561	-0.031128	0.04776	0.004425	-0.1091	0.0354	0.099487	-0.015106	0.05188	-0.15442	0.31143	-0.031586	-0.075531	-0.15823	0.04364	-0.14389	0.088348	-0.020752	0.031738	-0.002136	-0.20386	-0.061798	-0.001678	-0.003967
58.643	-0.001678	-0.030365	0.10208	-0.007935	-0.023193	0.12726	0.049286	0.007324	-0.014801	0.062103	0.11261	0.010071	0.13748	0.034332	0.22736	-0.014343	0.10223	-0.15991	0.091248	0.036316	-0.34286	-0.13611	0.073547	-0.2388	0.082092	-0.027924	0.013123	-0.008392	-0.18158	-0.095062	0.000305	0.001068
58.644	0.001526	0.005951	0.066071	0.009155	0.005798	0.070648	0.0737	-0.007324	-0.054626	0.22492	0.18616	0.014191	0.13397	0.014038	-0.077362	-0.005646	0.091858	-0.10101	0.077362	0.12116	-0.55939	-0.00412	0.038147	-0.24994	0.060883	-0.026855	0.009308	-0.004578	0.070038	-0.078888	-0.000458	0.005951
58.645	0.008392	-0.023956	0.080109	0.030518	0.014191	0.03891	0.089417	-0.005493	-0.089417	0.18692	0.2301	0.010376	-0.1413	0.084381	-0.22064	0.009613	0.01297	-0.052948	0.15427	0.054016	-0.71625	0.010071	0.015869	-0.037537	0.092926	-0.037231	-0.069733	0.001068	0.075989	-0.044403	-0.005188	-0.012054
58.646	0.007172	-0.014648	0.085754	0.014801	0.056458	0.055695	0.15732	-0.000763	-0.037689	0.14877	0.075684	0.019836	-0.11841	0.11414	-0.006714	0.009918	-0.072937	-0.027313	0.19684	-0.057831	0.032806	0.15243	-0.084839	0.074615	0.13809	-0.050201	-0.14725	-0.002441	0.081177	-0.043488	0.004883	-0.004425
58.647	0.007782	-0.007935	0.015411	-0.00824	0.050964	0.038605	0.21484	0.004883	0.061188	0.2562	-0.13596	0.00473	0.39673	-0.031433	-0.083313	0.00061	-0.12741	-0.12604	0.13901	0.002136	0.64911	0.074615	-0.086517	0.17517	0.13992	-0.053558	-0.031433	-0.005646	0.20203	-0.028992	-0.002289	-0.011597
58.648	0.010834	-0.008545	-0.014191	-0.020142	0.033264	0.036926	0.16785	0.011444	0.035248	0.15945	-0.29083	0.022736	0.22812	-0.085144	-0.089722	-0.002289	-0.10132	-0.1471	0.12344	0.001678	0.31525	0.029297	-0.072174	0.12054	0.12741	-0.060425	0.046387	-0.009918	0.29327	-0.050507	-0.005035	-0.025024
58.649	0.001373	0.006866	0.041199	-0.009613	0.026855	0.018921	0.11749	0.00885	0.046387	-0.005798	-0.13718	0.021973	-0.025482	-0.014954	-0.15472	-0.004578	-0.065613	-0.1413	-0.19455	-0.018463	-0.006256	0.24933	-0.066833	0.11276	0.14114	-0.043945	0.077057	-0.014343	-0.16266	-0.049896	-0.000458	-0.023956
58.65	0.008087	-0.034637	-0.0383	0.016174	0.00412	0.023041	0.14221	0.002747	0.051422	0.014191	0.027466	0.010681	-0.027771	0.066833	0.23224	0.003204	-0.051117	-0.12253	-0.032959	-0.025635	0.003052	0.59067	-0.055084	0.12848	0.15686	-0.058594	0.075989	-0.014343	-0.26154	-0.022736	-0.001068	-0.02655
58.651	0.002441	-0.054932	-0.026703	0.02655	0.0177	0.0737	0.14877	-0.00061	0.030365	0.057373	0.15167	0.010834	-0.02121	-0.018463	0.022888	-0.000458	-0.041656	-0.16388	0.074768	0.016632	0.031281	0.43579	-0.04303	0.10925	0.14786	-0.074463	0.05661	-0.00351	-0.02533	-0.010834	-0.00061	-0.023041
58.652	0.007324	-0.029755	-0.010071	0.02121	0.007019	0.095673	0.17807	-0.000916	0.010376	-0.030975	0.17639	0.025024	-0.11948	0.041046	0.10193	0.000763	0.000763	-0.070801	0.18188	-0.022125	-0.062561	0.12436	0.022278	0.079651	0.13397	-0.023804	0.067139	0.001221	-0.013275	-0.035553	0.004425	-0.02594
58.653	0.002136	0.024567	-0.018616	0.012207	-0.00061	0.13763	0.17517	-0.000305	0.010376	-0.067902	-0.009766	0.02182	-0.014191	0.1413	-0.033569	0.000458	-0.02243	-0.055847	0.19348	0.021057	0.048676	0.06073	0.011292	0.054016	0.11871	-0.070343	0.071411	-0.003052	0.029602	-0.029144	0.002289	-0.031738
58.654	0.000305	-0.014343	-0.042725	0.011292	-0.009613	0.10941	0.15564	0.004578	0.014343	-0.091705	-0.04715	0.028839	0.015564	0.14313	-0.084991	0.010376	0.011444	-0.06073	0.1857	-0.006104	0.14191	-0.023041	-0.005798	0.021973	0.097351	-0.12344	0.058746	-0.007324	0.071869	-0.001984	0.002899	-0.02533
58.655	0.009918	-0.015411	-0.049438	0.006866	-0.014343	0.040741	0.15411	0.005798	0.019379	-0.097198	0.045776	0.02182	0.030975	0.1918	0.048218	0.007172	0.047302	-0.083923	0.007477	-0.059357	0.14404	0.02121	0.049591	-0.023193	0.081024	-0.18295	0.018768	-0.008087	0.08667	-0.010223	0.001373	-0.022736
58.656	0.001068	-0.015411	-0.050964	-0.009155	0.000763	-0.027618	0.19516	-0.002747	0.02655	-0.072327	-0.042725	0.00885	0.036469	0.19287	0.56915	0.003815	0.028687	-0.058899	-0.42023	-0.022125	0.073853	0.14816	0.038452	-0.06073	0.064087	-0.271	0.034943	-0.010681	0.21149	-0.015106	-0.000153	-0.027466
58.657	-0.005188	-0.013275	0.027771	0	0.045471	-0.084534	0.22308	0.006561	0.006104	-0.036469	-0.13062	0.017548	-0.083923	0.13947	0.21744	0.00946	-0.005951	-0.058746	-0.31952	0.051575	0.029602	0.069885	0.022736	-0.040588	0.078125	-0.40924	0.05661	0.003662	0.21164	-0.025635	0.000153	-0.004883
